# xmcd
#
# Track frame offsets: 
#        150
#        16164
#        37008
#        57476
#        80419
#        96797
#        122511
#        141121
#        158256
#        169338
#        180177
#        193702
#        219441
#        237461
#        247417
#        267692
#        281522
#        298466
#        314389
#
# Disc length: 4651 seconds
#
# Revision: 0
# Processed by: cddbd v1.5.2PL0 Copyright (c) Steve Scherf et al.
# Submitted via: ExactAudioCopy v1.3
#
DISCID=1c122913
DTITLE=Marcel Worms - Blues Beyond Borders
DYEAR=2011
DGENRE=Instrumental
TTITLE0=Scraps
TTITLE1=J'Imali Wali
TTITLE2=Where it Hits
TTITLE3=Cryptoblues
TTITLE4=Blues Turan
TTITLE5=Nine Eleven and Five - An Elegy
TTITLE6=Halliburton Blues (A Symphonic Boogie-Woogie)
TTITLE7=Scattered Blues
TTITLE8=Pristhina Blues
TTITLE9=Blues for Zephyr
TTITLE10=Dolente
TTITLE11=Mary-Lou's Dream
TTITLE12=Blues in the Shape of an Apricot Tree
TTITLE13=Waitin' and Wailin' Blues
TTITLE14=White-Black Blues
TTITLE15=Hidden Blues
TTITLE16=Afro-Arab Blues
TTITLE17=RED (a deconstructed blues)
TTITLE18=Blues on a Bright Background
EXTD=
EXTT0=
EXTT1=
EXTT2=
EXTT3=
EXTT4=
EXTT5=
EXTT6=
EXTT7=
EXTT8=
EXTT9=
EXTT10=
EXTT11=
EXTT12=
EXTT13=
EXTT14=
EXTT15=
EXTT16=
EXTT17=
EXTT18=
PLAYORDER=
